<?xml version="1.0" encoding="UTF-8"?>
<svg width="32px" height="32px" viewBox="0 0 32 32" version="1.1" xmlns="http://www.w3.org/2000/svg" xmlns:xlink="http://www.w3.org/1999/xlink">
    <title>54A427B8-3AAF-4504-AA59-062379A2353D</title>
    <g id="1---Atoms" stroke="none" stroke-width="1" fill="none" fill-rule="evenodd">
        <g id="Atoms/2---Icons" transform="translate(-192.000000, -722.000000)" fill="#111111">
            <g id="Bold" transform="translate(80.000000, 644.000000)">
                <g id="Atoms/Icons/Bold/Arrow-Right" transform="translate(112.000000, 78.000000)">
                    <path d="M26.0014192,16 C26.0025114,16.884322 25.6226831,17.7262746 24.9589976,18.3106959 L10.0550759,31.4224585 C9.02790416,32.2843644 7.50051646,32.1686288 6.61494637,31.1617875 C5.72937628,30.1549463 5.80954552,28.6252794 6.79551126,27.7165245 L19.8284242,16.2512498 C19.9007985,16.1878103 19.9423007,16.0962424 19.9423007,16 C19.9423007,15.9037576 19.9007985,15.8121897 19.8284242,15.7487502 L6.79551126,4.28347545 C5.80954552,3.37472064 5.72937628,1.84505375 6.61494637,0.838212472 C7.50051646,-0.168628803 9.02790416,-0.284364436 10.0550759,0.577541542 L24.9536519,13.6852948 C25.6189439,14.2707167 26.0005753,15.1138106 26.0014192,16 Z" id="Icon-Color"></path>
                </g>
            </g>
        </g>
    </g>
</svg>