<?xml version="1.0" encoding="UTF-8"?>
<svg width="32px" height="32px" viewBox="0 0 32 32" version="1.1" xmlns="http://www.w3.org/2000/svg" xmlns:xlink="http://www.w3.org/1999/xlink">
    <title>8E6BE3DF-1E2B-4282-8AE1-19BF0E26D29F</title>
    <g id="1---Atoms" stroke="none" stroke-width="1" fill="none" fill-rule="evenodd">
        <g id="Atoms/2---Icons" transform="translate(-80.000000, -858.000000)" fill="#000000">
            <g id="Bold" transform="translate(80.000000, 780.000000)">
                <g id="Atoms/Icons/Bold/Arrow-Left" transform="translate(0.000000, 78.000000)">
                    <path d="M6,15.9621577 C5.99891044,15.0799272 6.37784034,14.2399659 7.03995608,13.6569269 L21.9086278,0.576175572 C22.9333702,-0.283691872 24.4571454,-0.168229971 25.340621,0.836229976 C26.2240966,1.84068992 26.1441169,3.36673893 25.1604832,4.2733444 L12.158395,15.7115021 C12.0861919,15.7747915 12.0447878,15.8661429 12.0447878,15.9621577 C12.0447878,16.0581724 12.0861919,16.1495238 12.158395,16.2128132 L25.1604832,27.6509709 C25.8449019,28.2252708 26.1645719,29.125224 25.995794,30.0025856 C25.8270161,30.8799472 25.1962696,31.597069 24.3476276,31.8764542 C23.4989855,32.1558394 22.5655905,31.9536557 21.9086278,31.3481397 L7.04528918,18.2713882 C6.38157067,17.6873509 6.00084187,16.8462511 6,15.9621577 Z" id="Icon-Color"></path>
                </g>
            </g>
        </g>
    </g>
</svg>