<?xml version="1.0" encoding="UTF-8"?>
<svg width="32px" height="32px" viewBox="0 0 32 32" version="1.1" xmlns="http://www.w3.org/2000/svg" xmlns:xlink="http://www.w3.org/1999/xlink">
    <title>5AE66601-2633-4A3A-BD42-345C1F4D5C16</title>
    <g id="1---Atoms" stroke="none" stroke-width="1" fill="none" fill-rule="evenodd">
        <g id="Atoms/2---Icons" transform="translate(-416.000000, -858.000000)" fill="#111111">
            <g id="Bold" transform="translate(80.000000, 780.000000)">
                <g id="Atoms/Icons/Bold/Arrow-Down" transform="translate(336.000000, 78.000000)">
                    <path d="M15.9621577,26.0401934 C15.0799272,26.0412829 14.2399659,25.662353 13.6569269,25.0002373 L0.576175572,10.1315655 C-0.283691872,9.10682317 -0.168229971,7.58304797 0.836229976,6.69957238 C1.84068992,5.81609679 3.36673893,5.89607642 4.2733444,6.87971021 L15.7115021,19.8817984 C15.7747915,19.9540015 15.8661429,19.9954056 15.9621577,19.9954056 C16.0581724,19.9954056 16.1495238,19.9540015 16.2128132,19.8817984 L27.6509709,6.87971021 C28.2252708,6.19529144 29.125224,5.87562145 30.0025856,6.04439937 C30.8799472,6.21317729 31.597069,6.84392373 31.8764542,7.69256577 C32.1558394,8.54120782 31.9536557,9.47460289 31.3481397,10.1315655 L18.2713882,24.9949042 C17.6873509,25.6586227 16.8462511,26.0393515 15.9621577,26.0401934 Z" id="Icon-Color"></path>
                </g>
            </g>
        </g>
    </g>
</svg>